<svg width="24" height="24" viewBox="0 0 24 24" fill="none" xmlns="http://www.w3.org/2000/svg">
<path d="M11.9594 17.5514C12.206 18.95 11.2721 20.2837 9.87353 20.5303C8.47494 20.7769 7.14125 19.843 6.89464 18.4444C6.73761 17.5539 6.60676 16.8118 6.50209 16.2181C4.27121 15.8472 2.57153 13.9078 2.57153 11.5713C2.57153 8.96769 4.68219 6.85703 7.28582 6.85703H14.0721L17.4762 4.68974C18.6742 3.92704 20.2637 4.27989 21.0264 5.47786C21.2891 5.89055 21.4287 6.36963 21.4287 6.85886V16.2838C21.4287 17.7039 20.2774 18.8552 18.8572 18.8552C18.368 18.8552 17.8889 18.7156 17.4762 18.4529L14.0721 16.2856L11.7361 16.2852C11.7996 16.6452 11.874 17.0673 11.9594 17.5514ZM8.58288 18.1467C8.66509 18.6129 9.10965 18.9242 9.57584 18.842C10.042 18.7598 10.3533 18.3153 10.2711 17.8491C10.164 17.2417 10.0721 16.7201 9.99523 16.2844L8.25456 16.2847C8.34441 16.7943 8.45386 17.415 8.58288 18.1467ZM18.3969 6.13582L14.5715 8.57131V14.5713L18.3969 17.0068C18.5345 17.0944 18.6942 17.1409 18.8572 17.1409C19.3306 17.1409 19.7144 16.7572 19.7144 16.2838V6.85886C19.7144 6.69578 19.6679 6.53609 19.5803 6.39853C19.3261 5.9992 18.7962 5.88159 18.3969 6.13582ZM12.8572 8.57111L7.28582 8.57131C5.62896 8.57131 4.28582 9.91446 4.28582 11.5713C4.28582 13.2282 5.62896 14.5713 7.28582 14.5713L12.8572 14.5711V8.57111Z" fill="#0E0E1B"/>
</svg>
