<svg width="24" height="25" viewBox="0 0 24 25" fill="none" xmlns="http://www.w3.org/2000/svg">
<path d="M11.9581 18.0514C12.2048 19.45 11.2709 20.7837 9.87231 21.0303C8.47372 21.2769 7.14003 20.343 6.89342 18.9444C6.73639 18.0539 6.60554 17.3118 6.50087 16.7181C4.26999 16.3472 2.57031 14.4078 2.57031 12.0713C2.57031 9.46769 4.68097 7.35703 7.2846 7.35703H14.0709L17.475 5.18974C18.673 4.42704 20.2624 4.77989 21.0251 5.97786C21.2879 6.39055 21.4275 6.86963 21.4275 7.35886V16.7838C21.4275 18.2039 20.2762 19.3552 18.856 19.3552C18.3668 19.3552 17.8877 19.2156 17.475 18.9529L14.0709 16.7856L11.7349 16.7852C11.7984 17.1452 11.8728 17.5673 11.9581 18.0514ZM8.58166 18.6467C8.66386 19.1129 9.10843 19.4242 9.57462 19.342C10.0408 19.2598 10.3521 18.8153 10.2699 18.3491C10.1628 17.7417 10.0708 17.2201 9.99401 16.7844L8.25334 16.7847C8.34319 17.2943 8.45263 17.915 8.58166 18.6467ZM18.3957 6.63582L14.5703 9.07131V15.0713L18.3957 17.5068C18.5333 17.5944 18.6929 17.6409 18.856 17.6409C19.3294 17.6409 19.7132 17.2572 19.7132 16.7838V7.35886C19.7132 7.19578 19.6666 7.03609 19.5791 6.89853C19.3248 6.4992 18.795 6.38159 18.3957 6.63582ZM12.856 9.07111L7.2846 9.07131C5.62774 9.07131 4.2846 10.4145 4.2846 12.0713C4.2846 13.7282 5.62774 15.0713 7.2846 15.0713L12.856 15.0711V9.07111Z" fill="white"/>
</svg>
