<svg width="16" height="16" viewBox="0 0 16 16" fill="none" xmlns="http://www.w3.org/2000/svg">
<path d="M3.16602 11.6V4.4C3.16602 3.4 3.59268 3 4.65268 3H5.34602C6.40602 3 6.83268 3.4 6.83268 4.4V11.6C6.83268 12.6 6.40602 13 5.34602 13H4.65268C3.59268 13 3.16602 12.6 3.16602 11.6Z" stroke="#292D32" stroke-width="1.5" stroke-linecap="round" stroke-linejoin="round"/>
<path d="M8.83398 10.2666V5.73325C8.83398 4.73325 9.26065 4.33325 10.3207 4.33325H11.014C12.074 4.33325 12.5007 4.73325 12.5007 5.73325V10.2666C12.5007 11.2666 12.074 11.6666 11.014 11.6666H10.3207C9.26065 11.6666 8.83398 11.2666 8.83398 10.2666Z" stroke="#292D32" stroke-width="1.5" stroke-linecap="round" stroke-linejoin="round"/>
<path d="M1.33398 8H2.93398" stroke="#292D32" stroke-width="1.5" stroke-linecap="round" stroke-linejoin="round"/>
<path d="M7.33398 8H8.66732" stroke="#292D32" stroke-width="1.5" stroke-linecap="round" stroke-linejoin="round"/>
<path d="M14.6664 8H12.873" stroke="#292D32" stroke-width="1.5" stroke-linecap="round" stroke-linejoin="round"/>
</svg>
