<svg width="16" height="16" viewBox="0 0 16 16" fill="none" xmlns="http://www.w3.org/2000/svg">
<path d="M11.6 12.8334H4.4C3.4 12.8334 3 12.4067 3 11.3467V10.6534C3 9.59341 3.4 9.16675 4.4 9.16675H11.6C12.6 9.16675 13 9.59341 13 10.6534V11.3467C13 12.4067 12.6 12.8334 11.6 12.8334Z" stroke="#292D32" stroke-width="1.5" stroke-linecap="round" stroke-linejoin="round"/>
<path d="M10.2673 7.16667H5.73398C4.73398 7.16667 4.33398 6.74 4.33398 5.68V4.98667C4.33398 3.92667 4.73398 3.5 5.73398 3.5H10.2673C11.2673 3.5 11.6673 3.92667 11.6673 4.98667V5.68C11.6673 6.74 11.2673 7.16667 10.2673 7.16667Z" stroke="#292D32" stroke-width="1.5" stroke-linecap="round" stroke-linejoin="round"/>
<path d="M8 14.6667V13.0667" stroke="#292D32" stroke-width="1.5" stroke-linecap="round" stroke-linejoin="round"/>
<path d="M8 8.66659V7.33325" stroke="#292D32" stroke-width="1.5" stroke-linecap="round" stroke-linejoin="round"/>
<path d="M8 1.33325V3.12659" stroke="#292D32" stroke-width="1.5" stroke-linecap="round" stroke-linejoin="round"/>
</svg>
