<svg width="16" height="16" viewBox="0 0 16 16" fill="none" xmlns="http://www.w3.org/2000/svg">
<g clip-path="url(#clip0_1187_385131)">
<path d="M2.74263 15.2434C2.7285 15.2126 2.71484 15.1643 2.71484 15.0911V1.3582C2.71484 1.07178 3.00642 0.75 3.38477 0.75H12.6682C13.0111 0.75 13.2878 1.03724 13.2878 1.3582V15.0912C13.2878 15.1557 13.2812 15.2008 13.2739 15.231C13.2479 15.2169 13.2111 15.1928 13.163 15.1517L13.1624 15.1512L9.02363 11.6262C9.02351 11.6261 9.0234 11.6261 9.02329 11.626C8.74033 11.3845 8.37643 11.2739 8.03254 11.2739C7.68952 11.2739 7.32525 11.3839 7.04227 11.6252C7.04195 11.6254 7.04163 11.6257 7.04132 11.626L2.88961 15.151L2.88791 15.1524C2.82034 15.2101 2.77059 15.2337 2.74263 15.2434ZM13.2543 15.2831C13.2543 15.2831 13.2546 15.2825 13.2555 15.2815C13.2548 15.2826 13.2543 15.2831 13.2543 15.2831ZM13.3209 15.2501C13.3223 15.2502 13.323 15.2503 13.323 15.2504L13.3209 15.2501ZM2.75937 15.2729C2.75955 15.2732 2.75973 15.2735 2.7599 15.2737L2.75937 15.2729Z" stroke="#111928" stroke-width="1.5"/>
</g>
<defs>
<clipPath id="clip0_1187_385131">
<rect width="16" height="16" fill="white"/>
</clipPath>
</defs>
</svg>
