<svg width="16" height="16" viewBox="0 0 16 16" fill="none" xmlns="http://www.w3.org/2000/svg">
<path d="M14.5397 2.62658C13.513 5.18658 10.9397 8.66658 8.78635 10.3933L7.47302 11.4466C7.30635 11.5666 7.13969 11.6733 6.95302 11.7466C6.95302 11.6266 6.94635 11.4933 6.92635 11.3666C6.85302 10.8066 6.59969 10.2866 6.15302 9.83992C5.69969 9.38658 5.14635 9.11992 4.57969 9.04658C4.44635 9.03992 4.31302 9.02658 4.17969 9.03992C4.25302 8.83325 4.36635 8.63992 4.50635 8.47992L5.54635 7.16658C7.26635 5.01325 10.7597 2.42658 13.313 1.40658C13.7064 1.25992 14.0864 1.36658 14.3264 1.61325C14.5797 1.85992 14.6997 2.23992 14.5397 2.62658Z" stroke="#0E0E1B" stroke-width="1.5" stroke-linecap="round" stroke-linejoin="round"/>
<path d="M6.95417 11.7468C6.95417 12.4801 6.67417 13.1801 6.1475 13.7134C5.74083 14.1201 5.1875 14.4001 4.5275 14.4868L2.8875 14.6668C1.99417 14.7668 1.2275 14.0068 1.33417 13.1001L1.51417 11.4601C1.67417 10.0001 2.89417 9.06678 4.1875 9.04012C4.32083 9.03345 4.46083 9.04011 4.5875 9.04678C5.15417 9.12011 5.7075 9.38011 6.16083 9.84011C6.6075 10.2868 6.86083 10.8068 6.93417 11.3668C6.94083 11.4934 6.95417 11.6201 6.95417 11.7468Z" stroke="#0E0E1B" stroke-width="1.5" stroke-linecap="round" stroke-linejoin="round"/>
<path d="M9.49318 9.64674C9.49318 7.90674 8.07984 6.49341 6.33984 6.49341" stroke="#0E0E1B" stroke-width="1.5" stroke-linecap="round" stroke-linejoin="round"/>
</svg>
