<svg width="14" height="15" viewBox="0 0 14 15" fill="none" xmlns="http://www.w3.org/2000/svg">
<g id="vuesax/linear/clipboard-import">
<g id="clipboard-import">
<path id="Vector" d="M5.83073 3.66097H8.16406C9.33073 3.66097 9.33073 3.07764 9.33073 2.4943C9.33073 1.32764 8.7474 1.32764 8.16406 1.32764H5.83073C5.2474 1.32764 4.66406 1.32764 4.66406 2.4943C4.66406 3.66097 5.2474 3.66097 5.83073 3.66097Z" stroke="#0E0E1B" stroke-width="1.5" stroke-miterlimit="10" stroke-linecap="round" stroke-linejoin="round"/>
<path id="Vector_2" d="M8.16667 12.9947H5.25C2.33333 12.9947 1.75 11.828 1.75 9.49468V5.99468C1.75 3.33468 2.72417 2.61135 4.66667 2.50635" stroke="#0E0E1B" stroke-width="1.5" stroke-miterlimit="10" stroke-linecap="round" stroke-linejoin="round"/>
<path id="Vector_3" d="M9.33594 2.50635C11.2784 2.61135 12.2526 3.32885 12.2526 5.99468V8.91135" stroke="#0E0E1B" stroke-width="1.5" stroke-miterlimit="10" stroke-linecap="round" stroke-linejoin="round"/>
<path id="Vector_4" d="M12.25 11.2446V12.9946H10.5" stroke="#0E0E1B" stroke-width="1.5" stroke-miterlimit="10" stroke-linecap="round" stroke-linejoin="round"/>
<path id="Vector_5" d="M8.75 9.49463L12.2267 12.9713" stroke="#0E0E1B" stroke-width="1.5" stroke-miterlimit="10" stroke-linecap="round" stroke-linejoin="round"/>
</g>
</g>
</svg>
