<svg width="17" height="16" viewBox="0 0 17 16" fill="none" xmlns="http://www.w3.org/2000/svg">
<path d="M9.83337 10.6666C9.83337 11.8466 9.32004 12.9133 8.50004 13.64C7.79337 14.28 6.86004 14.6666 5.83337 14.6666C3.62671 14.6666 1.83337 12.8733 1.83337 10.6666C1.83337 8.82664 3.08671 7.26664 4.78004 6.80664C5.24004 7.96664 6.22671 8.85997 7.44671 9.19331C7.78004 9.28664 8.13337 9.33331 8.50004 9.33331C8.86671 9.33331 9.22004 9.28664 9.55337 9.19331C9.73337 9.64664 9.83337 10.1466 9.83337 10.6666Z" stroke="#0E0E1B" stroke-width="1.5" stroke-linecap="round" stroke-linejoin="round"/>
<path d="M12.5 5.33398C12.5 5.85398 12.4 6.35398 12.22 6.80732C11.76 7.96732 10.7733 8.86065 9.55333 9.19398C9.22 9.28732 8.86667 9.33398 8.5 9.33398C8.13333 9.33398 7.78 9.28732 7.44667 9.19398C6.22667 8.86065 5.24 7.96732 4.78 6.80732C4.6 6.35398 4.5 5.85398 4.5 5.33398C4.5 3.12732 6.29333 1.33398 8.5 1.33398C10.7067 1.33398 12.5 3.12732 12.5 5.33398Z" stroke="#0E0E1B" stroke-width="1.5" stroke-linecap="round" stroke-linejoin="round"/>
<path d="M15.1667 10.6666C15.1667 12.8733 13.3733 14.6666 11.1667 14.6666C10.14 14.6666 9.20667 14.28 8.5 13.64C9.32 12.9133 9.83333 11.8466 9.83333 10.6666C9.83333 10.1466 9.73333 9.64664 9.55333 9.19331C10.7733 8.85997 11.76 7.96664 12.22 6.80664C13.9133 7.26664 15.1667 8.82664 15.1667 10.6666Z" stroke="#0E0E1B" stroke-width="1.5" stroke-linecap="round" stroke-linejoin="round"/>
</svg>
