<svg width="16" height="17" viewBox="0 0 16 17" fill="none" xmlns="http://www.w3.org/2000/svg">
<path d="M1.33594 3.49463C1.33594 3.67141 1.40616 3.84095 1.53117 3.96596C1.65617 4.09096 1.82571 4.16119 2.0025 4.16119H2.66906L2.66906 7.49463C2.66906 7.58219 2.68631 7.66889 2.71983 7.74978C2.75334 7.83068 2.80247 7.90417 2.8644 7.96607C2.92633 8.02797 2.99985 8.07706 3.08076 8.11054C3.16167 8.14402 3.24838 8.16123 3.33594 8.16119H12.6691C12.8459 8.16119 13.0154 8.09097 13.1405 7.96598C13.2656 7.84098 13.3359 7.67144 13.3359 7.49463V4.16119H14.0025C14.1793 4.16119 14.3489 4.09094 14.4739 3.96591C14.599 3.84088 14.6692 3.67129 14.6692 3.49447C14.6692 3.31764 14.599 3.14806 14.4739 3.02303C14.3489 2.89799 14.1793 2.82775 14.0025 2.82775H2.0025C1.91494 2.82775 1.82823 2.845 1.74734 2.87852C1.66645 2.91203 1.59296 2.96116 1.53106 3.02309C1.46916 3.08502 1.42006 3.15854 1.38658 3.23945C1.35311 3.32036 1.3359 3.40707 1.33594 3.49463ZM12.0025 4.16119V6.82775L4.0025 6.82775V4.16119H12.0025ZM1.33594 10.1612C1.33594 10.338 1.40616 10.5075 1.53117 10.6325C1.65617 10.7575 1.82571 10.8277 2.0025 10.8277H3.33594V12.8277C3.3359 12.9153 3.35311 13.002 3.38658 13.0829C3.42006 13.1638 3.46916 13.2374 3.53106 13.2993C3.59296 13.3612 3.66645 13.4103 3.74734 13.4439C3.82823 13.4774 3.91494 13.4946 4.0025 13.4946H12.0025C12.0901 13.4946 12.1768 13.4774 12.2577 13.4439C12.3385 13.4103 12.412 13.3612 12.4739 13.2993C12.5358 13.2374 12.5849 13.1638 12.6184 13.0829C12.6519 13.002 12.6691 12.9153 12.6691 12.8277V10.8277H14.0025C14.1793 10.8277 14.3488 10.7575 14.4738 10.6325C14.5988 10.5075 14.6691 10.338 14.6691 10.1612C14.6691 9.98441 14.5988 9.81486 14.4738 9.68986C14.3488 9.56486 14.1793 9.49463 14.0025 9.49463H2.0025C1.91496 9.49463 1.82829 9.51187 1.74742 9.54537C1.66655 9.57887 1.59306 9.62796 1.53117 9.68986C1.46927 9.75176 1.42017 9.82524 1.38668 9.90611C1.35318 9.98698 1.33594 10.0737 1.33594 10.1612ZM11.3359 10.8277V12.1612H4.66906V10.8277H11.3359Z" fill="black"/>
</svg>
