<svg width="16" height="17" viewBox="0 0 16 17" fill="none" xmlns="http://www.w3.org/2000/svg">
<path d="M12.6641 1.49463C12.4873 1.49463 12.3177 1.56486 12.1927 1.68986C12.0677 1.81486 11.9975 1.98441 11.9975 2.16119V2.82775H8.66406C8.5765 2.82775 8.4898 2.845 8.40891 2.87852C8.32802 2.91204 8.25452 2.96116 8.19262 3.02309C8.13072 3.08502 8.08163 3.15854 8.04815 3.23945C8.01467 3.32036 7.99746 3.40707 7.9975 3.49463V12.8277C7.9975 13.0046 8.06772 13.1741 8.19271 13.2992C8.31771 13.4242 8.48725 13.4945 8.66406 13.4946H11.9975V14.1612C11.9975 14.338 12.0677 14.5076 12.1928 14.6326C12.3178 14.7577 12.4874 14.8279 12.6642 14.8279C12.841 14.8279 13.0106 14.7577 13.1357 14.6326C13.2607 14.5076 13.3309 14.338 13.3309 14.1612V2.16119C13.3309 2.07363 13.3137 1.98693 13.2802 1.90603C13.2467 1.82514 13.1975 1.75165 13.1356 1.68975C13.0737 1.62785 13.0002 1.57875 12.9192 1.54528C12.8383 1.5118 12.7516 1.49459 12.6641 1.49463ZM11.9975 12.1612H9.33094V4.16119H11.9975V12.1612ZM5.9975 1.49463C5.82072 1.49463 5.65118 1.56486 5.52617 1.68986C5.40117 1.81486 5.33094 1.98441 5.33094 2.16119V3.49463H3.33094C3.24338 3.49459 3.15667 3.5118 3.07576 3.54528C2.99485 3.57875 2.92134 3.62785 2.85941 3.68975C2.79748 3.75165 2.74835 3.82514 2.71483 3.90603C2.68131 3.98693 2.66406 4.07363 2.66406 4.16119V12.1612C2.66406 12.2487 2.68131 12.3355 2.71483 12.4163C2.74835 12.4972 2.79748 12.5707 2.85941 12.6326C2.92134 12.6945 2.99485 12.7436 3.07576 12.7771C3.15667 12.8106 3.24338 12.8278 3.33094 12.8277H5.33094V14.1612C5.33094 14.338 5.40117 14.5075 5.52617 14.6325C5.65118 14.7575 5.82072 14.8277 5.9975 14.8277C6.17429 14.8277 6.34383 14.7575 6.46883 14.6325C6.59384 14.5075 6.66406 14.338 6.66406 14.1612V2.16119C6.66406 2.07366 6.64682 1.98698 6.61332 1.90611C6.57983 1.82524 6.53073 1.75176 6.46883 1.68986C6.40694 1.62796 6.33345 1.57887 6.25258 1.54537C6.17171 1.51187 6.08504 1.49463 5.9975 1.49463ZM5.33094 11.4946H3.9975V4.82775H5.33094V11.4946Z" fill="black"/>
</svg>
