<svg width="16" height="17" viewBox="0 0 16 17" fill="none" xmlns="http://www.w3.org/2000/svg">
<path d="M7.33094 2.82766H3.9975V2.1611C3.9975 1.98428 3.92726 1.8147 3.80222 1.68966C3.67719 1.56463 3.50761 1.49438 3.33078 1.49438C3.15396 1.49438 2.98437 1.56463 2.85934 1.68966C2.73431 1.8147 2.66406 1.98428 2.66406 2.1611V14.1611C2.66406 14.3379 2.73431 14.5075 2.85934 14.6325C2.98437 14.7576 3.15396 14.8278 3.33078 14.8278C3.50761 14.8278 3.67719 14.7576 3.80222 14.6325C3.92726 14.5075 3.9975 14.3379 3.9975 14.1611V13.4945H7.33094C7.4185 13.4945 7.50521 13.4773 7.5861 13.4438C7.66699 13.4103 7.74049 13.3611 7.80238 13.2992C7.86428 13.2373 7.91338 13.1638 7.94686 13.0828C7.98033 13.0019 7.99754 12.9152 7.9975 12.8277V3.49454C7.99754 3.40698 7.98033 3.32027 7.94686 3.23936C7.91338 3.15846 7.86428 3.08494 7.80238 3.02301C7.74049 2.96108 7.66699 2.91195 7.5861 2.87843C7.50521 2.84492 7.4185 2.82766 7.33094 2.82766ZM6.66406 12.1611H3.9975V4.1611H6.66406V12.1611ZM12.6641 3.49454H10.6641V2.1611C10.6641 1.98432 10.5938 1.81478 10.4688 1.68978C10.3438 1.56477 10.1743 1.49454 9.9975 1.49454C9.82072 1.49454 9.65118 1.56477 9.52617 1.68978C9.40117 1.81478 9.33094 1.98432 9.33094 2.1611V14.1611C9.33094 14.3379 9.40117 14.5074 9.52617 14.6324C9.65118 14.7574 9.82072 14.8277 9.9975 14.8277C10.1743 14.8277 10.3438 14.7574 10.4688 14.6324C10.5938 14.5074 10.6641 14.3379 10.6641 14.1611V12.8277H12.6641C12.7516 12.8277 12.8383 12.8105 12.9192 12.777C13.0002 12.7435 13.0737 12.6944 13.1356 12.6325C13.1975 12.5706 13.2467 12.4972 13.2802 12.4163C13.3137 12.3354 13.3309 12.2487 13.3309 12.1611V4.1611C13.3309 4.07354 13.3137 3.98684 13.2802 3.90595C13.2467 3.82506 13.1975 3.75156 13.1356 3.68966C13.0737 3.62776 13.0002 3.57867 12.9192 3.54519C12.8383 3.51171 12.7516 3.4945 12.6641 3.49454ZM11.9975 11.4945H10.6641V4.82766H11.9975V11.4945Z" fill="black"/>
</svg>
