<svg width="94" height="60" viewBox="0 0 94 60" fill="none" xmlns="http://www.w3.org/2000/svg">
<rect width="94" height="60" fill="white"/>
<path fill-rule="evenodd" clip-rule="evenodd" d="M43 11C41.8954 11 41 11.8954 41 13H53C53 11.8954 52.1046 11 51 11H43ZM42 17H52C53.1046 17 54 17.8954 54 19V21.5194L51.7494 19.7189C51.019 19.1346 49.981 19.1346 49.2506 19.7189L45.4658 22.7467L43.232 21.1511C42.471 20.6076 41.435 20.6639 40.7375 21.2867L40 21.9451V19C40 17.8954 40.8954 17 42 17ZM40 24.6263V25C40 26.1046 40.8954 27 42 27H52C53.1046 27 54 26.1046 54 25V24.0806L50.5 21.2806L46.7152 24.3085C46.0165 24.8674 45.0315 24.8943 44.3034 24.3742L42.0695 22.7786L40 24.6263ZM38 19C38 16.7909 39.7909 15 42 15H52C54.2091 15 56 16.7909 56 19V25C56 27.2091 54.2091 29 52 29H42C39.7909 29 38 27.2091 38 25V19Z" fill="#0E0E1B"/>
<path d="M20.16 39.356H24.6V40.112H20.16V39.356ZM20.256 43.232H25.308V44H19.368V35.6H25.128V36.368H20.256V43.232ZM27.2153 44V35.096H28.0673V44H27.2153ZM33.114 44.06C32.458 44.06 31.882 43.924 31.386 43.652C30.89 43.372 30.502 42.992 30.222 42.512C29.942 42.024 29.802 41.468 29.802 40.844C29.802 40.22 29.934 39.668 30.198 39.188C30.47 38.708 30.838 38.332 31.302 38.06C31.774 37.78 32.302 37.64 32.886 37.64C33.478 37.64 34.002 37.776 34.458 38.048C34.922 38.312 35.286 38.688 35.55 39.176C35.814 39.656 35.946 40.212 35.946 40.844C35.946 40.884 35.942 40.928 35.934 40.976C35.934 41.016 35.934 41.06 35.934 41.108H30.45V40.472H35.478L35.142 40.724C35.142 40.268 35.042 39.864 34.842 39.512C34.65 39.152 34.386 38.872 34.05 38.672C33.714 38.472 33.326 38.372 32.886 38.372C32.454 38.372 32.066 38.472 31.722 38.672C31.378 38.872 31.11 39.152 30.918 39.512C30.726 39.872 30.63 40.284 30.63 40.748V40.88C30.63 41.36 30.734 41.784 30.942 42.152C31.158 42.512 31.454 42.796 31.83 43.004C32.214 43.204 32.65 43.304 33.138 43.304C33.522 43.304 33.878 43.236 34.206 43.1C34.542 42.964 34.83 42.756 35.07 42.476L35.55 43.028C35.27 43.364 34.918 43.62 34.494 43.796C34.078 43.972 33.618 44.06 33.114 44.06ZM45.5522 37.64C46.0642 37.64 46.5082 37.74 46.8842 37.94C47.2682 38.132 47.5642 38.428 47.7722 38.828C47.9882 39.228 48.0962 39.732 48.0962 40.34V44H47.2442V40.424C47.2442 39.76 47.0842 39.26 46.7642 38.924C46.4522 38.58 46.0082 38.408 45.4322 38.408C45.0002 38.408 44.6242 38.5 44.3042 38.684C43.9922 38.86 43.7482 39.12 43.5722 39.464C43.4042 39.8 43.3202 40.208 43.3202 40.688V44H42.4682V40.424C42.4682 39.76 42.3082 39.26 41.9882 38.924C41.6682 38.58 41.2202 38.408 40.6442 38.408C40.2202 38.408 39.8482 38.5 39.5282 38.684C39.2082 38.86 38.9602 39.12 38.7842 39.464C38.6162 39.8 38.5322 40.208 38.5322 40.688V44H37.6802V37.7H38.4962V39.404L38.3642 39.104C38.5562 38.648 38.8642 38.292 39.2882 38.036C39.7202 37.772 40.2282 37.64 40.8122 37.64C41.4282 37.64 41.9522 37.796 42.3842 38.108C42.8162 38.412 43.0962 38.872 43.2242 39.488L42.8882 39.356C43.0722 38.844 43.3962 38.432 43.8602 38.12C44.3322 37.8 44.8962 37.64 45.5522 37.64ZM53.0828 44.06C52.4268 44.06 51.8508 43.924 51.3548 43.652C50.8588 43.372 50.4708 42.992 50.1908 42.512C49.9108 42.024 49.7708 41.468 49.7708 40.844C49.7708 40.22 49.9028 39.668 50.1668 39.188C50.4388 38.708 50.8068 38.332 51.2708 38.06C51.7428 37.78 52.2708 37.64 52.8548 37.64C53.4468 37.64 53.9708 37.776 54.4268 38.048C54.8908 38.312 55.2548 38.688 55.5188 39.176C55.7828 39.656 55.9148 40.212 55.9148 40.844C55.9148 40.884 55.9108 40.928 55.9028 40.976C55.9028 41.016 55.9028 41.06 55.9028 41.108H50.4188V40.472H55.4468L55.1108 40.724C55.1108 40.268 55.0108 39.864 54.8108 39.512C54.6188 39.152 54.3548 38.872 54.0188 38.672C53.6828 38.472 53.2948 38.372 52.8548 38.372C52.4228 38.372 52.0348 38.472 51.6908 38.672C51.3468 38.872 51.0788 39.152 50.8868 39.512C50.6948 39.872 50.5988 40.284 50.5988 40.748V40.88C50.5988 41.36 50.7028 41.784 50.9108 42.152C51.1268 42.512 51.4228 42.796 51.7988 43.004C52.1828 43.204 52.6188 43.304 53.1068 43.304C53.4908 43.304 53.8468 43.236 54.1748 43.1C54.5108 42.964 54.7988 42.756 55.0388 42.476L55.5188 43.028C55.2388 43.364 54.8868 43.62 54.4628 43.796C54.0468 43.972 53.5868 44.06 53.0828 44.06ZM60.8649 37.64C61.3769 37.64 61.8249 37.74 62.2089 37.94C62.6009 38.132 62.9049 38.428 63.1209 38.828C63.3449 39.228 63.4569 39.732 63.4569 40.34V44H62.6049V40.424C62.6049 39.76 62.4369 39.26 62.1009 38.924C61.7729 38.58 61.3089 38.408 60.7089 38.408C60.2609 38.408 59.8689 38.5 59.5329 38.684C59.2049 38.86 58.9489 39.12 58.7649 39.464C58.5889 39.8 58.5009 40.208 58.5009 40.688V44H57.6489V37.7H58.4649V39.428L58.3329 39.104C58.5329 38.648 58.8529 38.292 59.2929 38.036C59.7329 37.772 60.2569 37.64 60.8649 37.64ZM67.7503 44.06C67.1583 44.06 66.7023 43.9 66.3823 43.58C66.0623 43.26 65.9023 42.808 65.9023 42.224V36.308H66.7543V42.176C66.7543 42.544 66.8463 42.828 67.0303 43.028C67.2223 43.228 67.4943 43.328 67.8463 43.328C68.2223 43.328 68.5343 43.22 68.7823 43.004L69.0823 43.616C68.9143 43.768 68.7103 43.88 68.4703 43.952C68.2383 44.024 67.9983 44.06 67.7503 44.06ZM64.7743 38.408V37.7H68.6743V38.408H64.7743ZM72.3253 44.06C71.8053 44.06 71.3133 43.988 70.8493 43.844C70.3853 43.692 70.0213 43.504 69.7573 43.28L70.1413 42.608C70.3973 42.8 70.7253 42.968 71.1253 43.112C71.5253 43.248 71.9453 43.316 72.3853 43.316C72.9853 43.316 73.4173 43.224 73.6813 43.04C73.9453 42.848 74.0773 42.596 74.0773 42.284C74.0773 42.052 74.0013 41.872 73.8493 41.744C73.7053 41.608 73.5133 41.508 73.2733 41.444C73.0333 41.372 72.7653 41.312 72.4693 41.264C72.1733 41.216 71.8773 41.16 71.5813 41.096C71.2933 41.032 71.0293 40.94 70.7893 40.82C70.5493 40.692 70.3533 40.52 70.2013 40.304C70.0573 40.088 69.9853 39.8 69.9853 39.44C69.9853 39.096 70.0813 38.788 70.2733 38.516C70.4653 38.244 70.7453 38.032 71.1133 37.88C71.4893 37.72 71.9453 37.64 72.4813 37.64C72.8893 37.64 73.2973 37.696 73.7053 37.808C74.1133 37.912 74.4493 38.052 74.7133 38.228L74.3413 38.912C74.0613 38.72 73.7613 38.584 73.4413 38.504C73.1213 38.416 72.8013 38.372 72.4813 38.372C71.9133 38.372 71.4933 38.472 71.2213 38.672C70.9573 38.864 70.8253 39.112 70.8253 39.416C70.8253 39.656 70.8973 39.844 71.0413 39.98C71.1933 40.116 71.3893 40.224 71.6293 40.304C71.8773 40.376 72.1453 40.436 72.4333 40.484C72.7293 40.532 73.0213 40.592 73.3093 40.664C73.6053 40.728 73.8733 40.82 74.1133 40.94C74.3613 41.052 74.5573 41.216 74.7013 41.432C74.8533 41.64 74.9293 41.916 74.9293 42.26C74.9293 42.628 74.8253 42.948 74.6173 43.22C74.4173 43.484 74.1213 43.692 73.7293 43.844C73.3453 43.988 72.8773 44.06 72.3253 44.06Z" fill="#111928"/>
</svg>
