<svg width="20" height="21" viewBox="0 0 20 21" fill="none" xmlns="http://www.w3.org/2000/svg">
<path d="M18.3333 7.25951V3.47617C18.3333 2.30117 17.8 1.82617 16.475 1.82617H13.1083C11.7833 1.82617 11.25 2.30117 11.25 3.47617V7.25117C11.25 8.43451 11.7833 8.90117 13.1083 8.90117H16.475C17.8 8.9095 18.3333 8.43451 18.3333 7.25951Z" stroke="white" stroke-width="1.7" stroke-linecap="round" stroke-linejoin="round"/>
<path d="M18.3333 16.6352V13.2685C18.3333 11.9435 17.8 11.4102 16.475 11.4102H13.1083C11.7833 11.4102 11.25 11.9435 11.25 13.2685V16.6352C11.25 17.9602 11.7833 18.4935 13.1083 18.4935H16.475C17.8 18.4935 18.3333 17.9602 18.3333 16.6352Z" stroke="white" stroke-width="1.7" stroke-linecap="round" stroke-linejoin="round"/>
<path d="M8.7474 7.25951V3.47617C8.7474 2.30117 8.21406 1.82617 6.88906 1.82617H3.5224C2.1974 1.82617 1.66406 2.30117 1.66406 3.47617V7.25117C1.66406 8.43451 2.1974 8.90117 3.5224 8.90117H6.88906C8.21406 8.9095 8.7474 8.43451 8.7474 7.25951Z" stroke="white" stroke-width="1.7" stroke-linecap="round" stroke-linejoin="round"/>
<path d="M8.7474 16.6352V13.2685C8.7474 11.9435 8.21406 11.4102 6.88906 11.4102H3.5224C2.1974 11.4102 1.66406 11.9435 1.66406 13.2685V16.6352C1.66406 17.9602 2.1974 18.4935 3.5224 18.4935H6.88906C8.21406 18.4935 8.7474 17.9602 8.7474 16.6352Z" stroke="white" stroke-width="1.7" stroke-linecap="round" stroke-linejoin="round"/>
</svg>
