<svg width="16" height="17" viewBox="0 0 16 17" fill="none" xmlns="http://www.w3.org/2000/svg">
<path d="M10.3905 8.16108C10.3905 9.48108 9.32385 10.5477 8.00385 10.5477C6.68385 10.5477 5.61719 9.48108 5.61719 8.16108C5.61719 6.84108 6.68385 5.77441 8.00385 5.77441C9.32385 5.77441 10.3905 6.84108 10.3905 8.16108Z" stroke="#292D32" stroke-width="1.5" stroke-linecap="round" stroke-linejoin="round"/>
<path d="M7.9999 13.6744C10.3532 13.6744 12.5466 12.2878 14.0732 9.88778C14.6732 8.94778 14.6732 7.36778 14.0732 6.42778C12.5466 4.02778 10.3532 2.64111 7.9999 2.64111C5.64656 2.64111 3.45323 4.02778 1.92656 6.42778C1.32656 7.36778 1.32656 8.94778 1.92656 9.88778C3.45323 12.2878 5.64656 13.6744 7.9999 13.6744Z" stroke="#292D32" stroke-width="1.5" stroke-linecap="round" stroke-linejoin="round"/>
</svg>
