<svg width="378" height="33" viewBox="0 0 378 33" fill="none" xmlns="http://www.w3.org/2000/svg">
<rect x="0.5" y="0.660156" width="120" height="31" rx="7.5" fill="white"/>
<rect x="0.5" y="0.660156" width="120" height="31" rx="7.5" stroke="#E9E9F0"/>
<path d="M8.43984 19.6602V18.7902L11.2198 16.1502C11.4532 15.9302 11.6265 15.7368 11.7398 15.5702C11.8532 15.4035 11.9265 15.2502 11.9598 15.1102C11.9998 14.9635 12.0198 14.8268 12.0198 14.7002C12.0198 14.3802 11.9098 14.1335 11.6898 13.9602C11.4698 13.7802 11.1465 13.6902 10.7198 13.6902C10.3798 13.6902 10.0698 13.7502 9.78984 13.8702C9.51651 13.9902 9.27984 14.1735 9.07984 14.4202L8.16984 13.7202C8.44318 13.3535 8.80984 13.0702 9.26984 12.8702C9.73651 12.6635 10.2565 12.5602 10.8298 12.5602C11.3365 12.5602 11.7765 12.6435 12.1498 12.8102C12.5298 12.9702 12.8198 13.2002 13.0198 13.5002C13.2265 13.8002 13.3298 14.1568 13.3298 14.5702C13.3298 14.7968 13.2998 15.0235 13.2398 15.2502C13.1798 15.4702 13.0665 15.7035 12.8998 15.9502C12.7332 16.1968 12.4898 16.4735 12.1698 16.7802L9.77984 19.0502L9.50984 18.5602H13.5998V19.6602H8.43984Z" fill="#111928"/>
<path opacity="0.6" d="M13.9697 20.6602L17.2697 11.2402H17.9197L14.6197 20.6602H13.9697ZM20.1793 19.7202C19.6727 19.7202 19.1927 19.6402 18.7393 19.4802C18.2927 19.3135 17.9327 19.0935 17.6593 18.8202L18.0093 18.2502C18.236 18.4835 18.5393 18.6768 18.9193 18.8302C19.306 18.9835 19.726 19.0602 20.1793 19.0602C20.7593 19.0602 21.2027 18.9335 21.5093 18.6802C21.8227 18.4268 21.9793 18.0868 21.9793 17.6602C21.9793 17.2335 21.826 16.8935 21.5193 16.6402C21.2193 16.3868 20.7427 16.2602 20.0893 16.2602H19.5893V15.7302L21.7493 13.0202L21.8493 13.3002H17.9493V12.6602H22.4493V13.1702L20.2893 15.8802L19.9393 15.6502H20.2093C21.0493 15.6502 21.676 15.8368 22.0893 16.2102C22.5093 16.5835 22.7193 17.0635 22.7193 17.6502C22.7193 18.0435 22.626 18.3968 22.4393 18.7102C22.2527 19.0235 21.9693 19.2702 21.5893 19.4502C21.216 19.6302 20.746 19.7202 20.1793 19.7202ZM25.8462 19.7202C25.3462 19.7202 24.8695 19.6402 24.4162 19.4802C23.9629 19.3135 23.6029 19.0935 23.3362 18.8202L23.6862 18.2502C23.9062 18.4835 24.2062 18.6768 24.5862 18.8302C24.9729 18.9835 25.3895 19.0602 25.8362 19.0602C26.4295 19.0602 26.8795 18.9302 27.1862 18.6702C27.4995 18.4035 27.6562 18.0568 27.6562 17.6302C27.6562 17.3302 27.5829 17.0735 27.4362 16.8602C27.2962 16.6402 27.0562 16.4702 26.7162 16.3502C26.3762 16.2302 25.9095 16.1702 25.3162 16.1702H23.8262L24.1862 12.6602H28.0162V13.3002H24.4762L24.8462 12.9502L24.5362 15.8902L24.1662 15.5302H25.4762C26.1829 15.5302 26.7495 15.6168 27.1762 15.7902C27.6029 15.9635 27.9095 16.2068 28.0962 16.5202C28.2895 16.8268 28.3862 17.1868 28.3862 17.6002C28.3862 17.9935 28.2929 18.3535 28.1062 18.6802C27.9195 19.0002 27.6395 19.2535 27.2662 19.4402C26.8929 19.6268 26.4195 19.7202 25.8462 19.7202Z" fill="#111928"/>
<path d="M43.3828 20.207L39.3361 16.1604L43.3828 12.1137" stroke="#0E0E1B" stroke-width="1.5" stroke-miterlimit="10" stroke-linecap="round" stroke-linejoin="round"/>
<path d="M50.6641 16.1602L39.4441 16.1602" stroke="#0E0E1B" stroke-width="1.5" stroke-miterlimit="10" stroke-linecap="round" stroke-linejoin="round"/>
<rect x="61" y="28.1602" width="24" height="24" rx="4" transform="rotate(-90 61 28.1602)" fill="#E1E1FF"/>
<path d="M74.6172 12.1133L78.6639 16.1599L74.6172 20.2066" stroke="#0E0E1B" stroke-width="1.5" stroke-miterlimit="10" stroke-linecap="round" stroke-linejoin="round"/>
<path d="M67.3359 16.1602H78.5559" stroke="#0E0E1B" stroke-width="1.5" stroke-miterlimit="10" stroke-linecap="round" stroke-linejoin="round"/>
<path d="M102.199 16.1526L94.782 16.1648" stroke="#0E0E1B" stroke-width="1.5" stroke-miterlimit="10" stroke-linecap="round" stroke-linejoin="round"/>
<path d="M99.3516 20.0215L103.221 16.1518L99.3883 12.3188" stroke="#0E0E1B" stroke-width="1.5" stroke-miterlimit="10" stroke-linecap="round" stroke-linejoin="round"/>
<path d="M107.219 21.8262V10.4928" stroke="#0E0E1B" stroke-width="1.5" stroke-miterlimit="10" stroke-linecap="round" stroke-linejoin="round"/>
<rect x="137" y="14.1602" width="200" height="4" rx="2" fill="#F1F1F9"/>
<rect x="137" y="14.1602" width="72" height="4" rx="2" fill="#1B1B3A"/>
<circle cx="201" cy="16.1602" r="9" fill="#1B1B3A" stroke="#F9FAFB" stroke-width="2"/>
<circle cx="201" cy="16.1602" r="6" fill="white"/>
<path d="M348.184 21.1602V12.0602L348.982 12.8862H346.112V11.3602H350.004V21.1602H348.184ZM353.516 21.1602V12.0602L354.314 12.8862H351.444V11.3602H355.336V21.1602H353.516ZM361.214 21.3002C360.402 21.3002 359.697 21.1788 359.1 20.9362C358.503 20.6935 358.041 20.3528 357.714 19.9142C357.387 19.4662 357.224 18.9435 357.224 18.3462C357.224 17.7488 357.383 17.2448 357.7 16.8342C358.017 16.4235 358.475 16.1108 359.072 15.8962C359.669 15.6815 360.383 15.5742 361.214 15.5742C362.045 15.5742 362.759 15.6815 363.356 15.8962C363.963 16.1108 364.425 16.4282 364.742 16.8482C365.069 17.2588 365.232 17.7582 365.232 18.3462C365.232 18.9435 365.064 19.4662 364.728 19.9142C364.401 20.3528 363.935 20.6935 363.328 20.9362C362.731 21.1788 362.026 21.3002 361.214 21.3002ZM361.214 19.8722C361.886 19.8722 362.418 19.7322 362.81 19.4522C363.202 19.1722 363.398 18.7848 363.398 18.2902C363.398 17.8048 363.202 17.4222 362.81 17.1422C362.418 16.8622 361.886 16.7222 361.214 16.7222C360.542 16.7222 360.015 16.8622 359.632 17.1422C359.249 17.4222 359.058 17.8048 359.058 18.2902C359.058 18.7848 359.249 19.1722 359.632 19.4522C360.015 19.7322 360.542 19.8722 361.214 19.8722ZM361.214 16.5262C360.458 16.5262 359.809 16.4282 359.268 16.2322C358.727 16.0268 358.307 15.7328 358.008 15.3502C357.719 14.9582 357.574 14.4915 357.574 13.9502C357.574 13.3902 357.723 12.9095 358.022 12.5082C358.33 12.0975 358.759 11.7802 359.31 11.5562C359.861 11.3322 360.495 11.2202 361.214 11.2202C361.942 11.2202 362.581 11.3322 363.132 11.5562C363.683 11.7802 364.112 12.0975 364.42 12.5082C364.728 12.9095 364.882 13.3902 364.882 13.9502C364.882 14.4915 364.733 14.9582 364.434 15.3502C364.145 15.7328 363.725 16.0268 363.174 16.2322C362.623 16.4282 361.97 16.5262 361.214 16.5262ZM361.214 15.4062C361.793 15.4062 362.25 15.2848 362.586 15.0422C362.922 14.7902 363.09 14.4542 363.09 14.0342C363.09 13.5955 362.917 13.2548 362.572 13.0122C362.227 12.7695 361.774 12.6482 361.214 12.6482C360.654 12.6482 360.206 12.7695 359.87 13.0122C359.534 13.2548 359.366 13.5955 359.366 14.0342C359.366 14.4542 359.529 14.7902 359.856 15.0422C360.192 15.2848 360.645 15.4062 361.214 15.4062ZM367.648 21.1602L374.34 11.3602H375.712L369.02 21.1602H367.648ZM368.46 16.6382C368.003 16.6382 367.597 16.5262 367.242 16.3022C366.887 16.0782 366.612 15.7655 366.416 15.3642C366.22 14.9628 366.122 14.4915 366.122 13.9502C366.122 13.4088 366.22 12.9375 366.416 12.5362C366.612 12.1348 366.887 11.8222 367.242 11.5982C367.597 11.3742 368.003 11.2622 368.46 11.2622C368.936 11.2622 369.347 11.3742 369.692 11.5982C370.047 11.8222 370.322 12.1348 370.518 12.5362C370.714 12.9375 370.812 13.4088 370.812 13.9502C370.812 14.4915 370.714 14.9628 370.518 15.3642C370.322 15.7655 370.047 16.0782 369.692 16.3022C369.347 16.5262 368.936 16.6382 368.46 16.6382ZM368.474 15.6582C368.847 15.6582 369.137 15.5135 369.342 15.2242C369.557 14.9255 369.664 14.5008 369.664 13.9502C369.664 13.3995 369.557 12.9795 369.342 12.6902C369.137 12.3915 368.847 12.2422 368.474 12.2422C368.101 12.2422 367.802 12.3915 367.578 12.6902C367.363 12.9888 367.256 13.4088 367.256 13.9502C367.256 14.4915 367.363 14.9115 367.578 15.2102C367.802 15.5088 368.101 15.6582 368.474 15.6582ZM374.886 21.2582C374.429 21.2582 374.023 21.1462 373.668 20.9222C373.313 20.6982 373.038 20.3855 372.842 19.9842C372.646 19.5828 372.548 19.1115 372.548 18.5702C372.548 18.0288 372.646 17.5575 372.842 17.1562C373.038 16.7548 373.313 16.4422 373.668 16.2182C374.023 15.9942 374.429 15.8822 374.886 15.8822C375.362 15.8822 375.773 15.9942 376.118 16.2182C376.473 16.4422 376.748 16.7548 376.944 17.1562C377.14 17.5575 377.238 18.0288 377.238 18.5702C377.238 19.1115 377.14 19.5828 376.944 19.9842C376.748 20.3855 376.473 20.6982 376.118 20.9222C375.773 21.1462 375.362 21.2582 374.886 21.2582ZM374.886 20.2782C375.259 20.2782 375.553 20.1288 375.768 19.8302C375.983 19.5315 376.09 19.1115 376.09 18.5702C376.09 18.0288 375.983 17.6088 375.768 17.3102C375.553 17.0115 375.259 16.8622 374.886 16.8622C374.522 16.8622 374.228 17.0115 374.004 17.3102C373.789 17.5995 373.682 18.0195 373.682 18.5702C373.682 19.1208 373.789 19.5455 374.004 19.8442C374.228 20.1335 374.522 20.2782 374.886 20.2782Z" fill="#1B1B3A"/>
</svg>
