<svg width="16" height="16" viewBox="0 0 16 16" fill="none" xmlns="http://www.w3.org/2000/svg">
<path d="M6.58073 2.7335V13.2668C6.58073 13.682 6.48916 13.7785 6.47099 13.7956C6.44132 13.8235 6.30875 13.9168 5.84406 13.9168H3.15073C2.68604 13.9168 2.55348 13.8235 2.5238 13.7956C2.50563 13.7785 2.41406 13.682 2.41406 13.2668V2.7335C2.41406 2.31836 2.50563 2.22185 2.5238 2.20476C2.55348 2.17684 2.68604 2.0835 3.15073 2.0835H5.84406C6.30875 2.0835 6.44132 2.17684 6.47099 2.20476C6.48916 2.22185 6.58073 2.31836 6.58073 2.7335Z" stroke="#0E0E1B" stroke-width="1.5"/>
<path d="M13.5807 10.2398V13.0932C13.5807 13.5866 13.21 13.9165 12.8441 13.9165H10.1507C9.78476 13.9165 9.41406 13.5866 9.41406 13.0932V10.2398C9.41406 9.74642 9.78476 9.4165 10.1507 9.4165H12.8441C13.21 9.4165 13.5807 9.74642 13.5807 10.2398Z" stroke="#0E0E1B" stroke-width="1.5"/>
<path d="M13.5807 2.90683V5.76016C13.5807 6.25358 13.21 6.5835 12.8441 6.5835H10.1507C9.78476 6.5835 9.41406 6.25358 9.41406 5.76016V2.90683C9.41406 2.41341 9.78476 2.0835 10.1507 2.0835H12.8441C13.21 2.0835 13.5807 2.41341 13.5807 2.90683Z" stroke="#0E0E1B" stroke-width="1.5"/>
</svg>
