<svg width="16" height="16" viewBox="0 0 16 16" fill="none" xmlns="http://www.w3.org/2000/svg">
<g id="vuesax/linear/global">
<g id="global">
<path id="Vector" d="M8.0026 14.6668C11.6845 14.6668 14.6693 11.6821 14.6693 8.00016C14.6693 4.31826 11.6845 1.3335 8.0026 1.3335C4.32071 1.3335 1.33594 4.31826 1.33594 8.00016C1.33594 11.6821 4.32071 14.6668 8.0026 14.6668Z" stroke="#0E0E1B" stroke-linecap="round" stroke-linejoin="round"/>
<path id="Vector_2" d="M5.33177 2H5.99844C4.69844 5.89333 4.69844 10.1067 5.99844 14H5.33177" stroke="#0E0E1B" stroke-linecap="round" stroke-linejoin="round"/>
<path id="Vector_3" d="M10 2C11.3 5.89333 11.3 10.1067 10 14" stroke="#0E0E1B" stroke-linecap="round" stroke-linejoin="round"/>
<path id="Vector_4" d="M2 10.6667V10C5.89333 11.3 10.1067 11.3 14 10V10.6667" stroke="#0E0E1B" stroke-linecap="round" stroke-linejoin="round"/>
<path id="Vector_5" d="M2 5.9999C5.89333 4.6999 10.1067 4.6999 14 5.9999" stroke="#0E0E1B" stroke-linecap="round" stroke-linejoin="round"/>
</g>
</g>
</svg>
