<svg width="17" height="16" viewBox="0 0 17 16" fill="none" xmlns="http://www.w3.org/2000/svg">
<path d="M15.1666 7.33398V6.00065C15.1666 2.66732 13.8333 1.33398 10.5 1.33398H6.49998C3.16665 1.33398 1.83331 2.66732 1.83331 6.00065V10.0007C1.83331 13.334 3.16665 14.6673 6.49998 14.6673H7.16665" stroke="#0E0E1B" stroke-width="1.5" stroke-linecap="round" stroke-linejoin="round"/>
<path d="M1.85333 5.66797H15.1666" stroke="#0E0E1B" stroke-width="1.5" stroke-linecap="round" stroke-linejoin="round"/>
<path d="M1.85333 10.334H8.49998" stroke="#0E0E1B" stroke-width="1.5" stroke-linecap="round" stroke-linejoin="round"/>
<path d="M6.17334 14.6598V1.33984" stroke="#0E0E1B" stroke-width="1.5" stroke-linecap="round" stroke-linejoin="round"/>
<path d="M10.84 7.99316V1.33984" stroke="#0E0E1B" stroke-width="1.5" stroke-linecap="round" stroke-linejoin="round"/>
<path d="M12.9866 9.7794L10.22 12.546C10.1133 12.6527 10.0133 12.8594 9.98665 13.006L9.83333 14.066C9.78 14.446 10.0467 14.7194 10.4267 14.6594L11.4866 14.506C11.6333 14.486 11.84 14.3794 11.9467 14.2727L14.7133 11.506C15.1867 11.0327 15.4133 10.4727 14.7133 9.77273C14.02 9.0794 13.4666 9.2994 12.9866 9.7794Z" stroke="#0E0E1B" stroke-width="1.5" stroke-miterlimit="10" stroke-linecap="round" stroke-linejoin="round"/>
<path d="M12.5933 10.1719C12.8267 11.0119 13.4866 11.6652 14.3266 11.9052" stroke="#0E0E1B" stroke-width="1.5" stroke-miterlimit="10" stroke-linecap="round" stroke-linejoin="round"/>
</svg>
