<svg width="14" height="12" viewBox="0 0 14 12" fill="none" xmlns="http://www.w3.org/2000/svg">
<path d="M13.6641 10.8276C13.6641 10.6509 13.5938 10.4813 13.4688 10.3563C13.3438 10.2313 13.1743 10.1611 12.9975 10.1611H12.3309V6.82764C12.3309 6.74008 12.3137 6.65337 12.2802 6.57248C12.2467 6.49159 12.1975 6.41809 12.1356 6.35619C12.0737 6.29429 12.0001 6.2452 11.9192 6.21172C11.8383 6.17825 11.7516 6.16104 11.6641 6.16108L2.33094 6.16108C2.15413 6.16108 1.98456 6.23129 1.8595 6.35629C1.73445 6.48128 1.66415 6.65083 1.66406 6.82764V10.1611H0.997502C0.820678 10.1611 0.651095 10.2313 0.526061 10.3564C0.401027 10.4814 0.330783 10.651 0.330783 10.8278C0.330783 11.0046 0.401027 11.1742 0.526061 11.2992C0.651095 11.4243 0.820678 11.4945 0.997502 11.4945H12.9975C13.0851 11.4945 13.1718 11.4773 13.2527 11.4437C13.3335 11.4102 13.407 11.3611 13.4689 11.2992C13.5308 11.2372 13.5799 11.1637 13.6134 11.0828C13.6469 11.0019 13.6641 10.9152 13.6641 10.8276ZM2.9975 10.1611V7.49452L10.9975 7.49452V10.1611H2.9975ZM13.6641 4.16108C13.6641 3.98429 13.5938 3.81475 13.4688 3.68975C13.3438 3.56474 13.1743 3.49452 12.9975 3.49452H11.6641V1.49452C11.6641 1.40696 11.6469 1.32024 11.6134 1.23934C11.5799 1.15843 11.5308 1.08491 11.4689 1.02298C11.407 0.961051 11.3335 0.911924 11.2527 0.878406C11.1718 0.844888 11.0851 0.827637 10.9975 0.827637L2.9975 0.827637C2.90994 0.827637 2.82324 0.844888 2.74235 0.878406C2.66146 0.911924 2.58796 0.961051 2.52606 1.02298C2.46416 1.08491 2.41507 1.15843 2.38159 1.23934C2.34811 1.32024 2.3309 1.40696 2.33094 1.49452V3.49452H0.997502C0.82072 3.49452 0.651177 3.56474 0.526174 3.68975C0.401169 3.81475 0.330943 3.98429 0.330943 4.16108C0.330943 4.33786 0.401169 4.5074 0.526174 4.63241C0.651177 4.75741 0.82072 4.82764 0.997502 4.82764L12.9975 4.82764C13.085 4.82764 13.1717 4.8104 13.2526 4.7769C13.3335 4.7434 13.4069 4.6943 13.4688 4.63241C13.5307 4.57051 13.5798 4.49703 13.6133 4.41616C13.6468 4.33529 13.6641 4.24861 13.6641 4.16108ZM3.66406 3.49452V2.16108L10.3309 2.16108V3.49452L3.66406 3.49452Z" fill="black"/>
</svg>
