<svg width="20" height="21" viewBox="0 0 20 21" fill="none" xmlns="http://www.w3.org/2000/svg">
<path d="M4.54906 15.5691V13.1358C4.54906 12.3275 5.1824 11.6025 6.0824 11.6025C6.89073 11.6025 7.61573 12.2358 7.61573 13.1358V15.4775C7.61573 17.1025 6.26573 18.4525 4.64073 18.4525C3.01573 18.4525 1.66573 17.0941 1.66573 15.4775V10.3441C1.57406 5.66081 5.27406 1.86914 9.9574 1.86914C14.6407 1.86914 18.3324 5.66081 18.3324 10.2525V15.3858C18.3324 17.0108 16.9824 18.3608 15.3574 18.3608C13.7324 18.3608 12.3824 17.0108 12.3824 15.3858V13.0441C12.3824 12.2358 13.0157 11.5108 13.9157 11.5108C14.7241 11.5108 15.4491 12.1441 15.4491 13.0441V15.5691" stroke="#0E0E1B" stroke-width="1.5" stroke-linecap="round" stroke-linejoin="round"/>
</svg>
