<svg width="16" height="16" viewBox="0 0 16 16" fill="none" xmlns="http://www.w3.org/2000/svg">
<path d="M4.84145 1.3335H11.1548C11.5881 1.3335 11.9748 1.34685 12.3215 1.39351C14.1681 1.60018 14.6681 2.46684 14.6681 4.84017V9.05351C14.6681 11.4268 14.1681 12.2935 12.3215 12.5002C11.9748 12.5468 11.5948 12.5602 11.1548 12.5602H4.84145C4.40812 12.5602 4.02145 12.5468 3.67478 12.5002C1.82812 12.2935 1.32812 11.4268 1.32812 9.05351V4.84017C1.32812 2.46684 1.82812 1.60018 3.67478 1.39351C4.02145 1.34685 4.40812 1.3335 4.84145 1.3335Z" stroke="#0E0E1B" stroke-width="1.5" stroke-linecap="round" stroke-linejoin="round"/>
<path d="M9.05469 5.54688H11.508" stroke="#0E0E1B" stroke-width="1.5" stroke-linecap="round" stroke-linejoin="round"/>
<path d="M4.49219 9.40674H4.50551H11.5122" stroke="#0E0E1B" stroke-width="1.5" stroke-linecap="round" stroke-linejoin="round"/>
<path d="M4.66406 14.6665H11.3307" stroke="#292D32" stroke-width="1.5" stroke-linecap="round" stroke-linejoin="round"/>
<path d="M4.79842 5.53353H4.80441" stroke="#0E0E1B" stroke-width="2" stroke-linecap="round" stroke-linejoin="round"/>
<path d="M6.99373 5.53353H6.99972" stroke="#0E0E1B" stroke-width="2" stroke-linecap="round" stroke-linejoin="round"/>
</svg>
