<svg width="17" height="16" viewBox="0 0 17 16" fill="none" xmlns="http://www.w3.org/2000/svg">
<path d="M8.49998 5.25977L7.78665 6.49977C7.62665 6.7731 7.75998 6.99977 8.07331 6.99977H8.91998C9.23998 6.99977 9.36665 7.22643 9.20665 7.49977L8.49998 8.73977" stroke="#0E0E1B" stroke-width="1.5" stroke-linecap="round" stroke-linejoin="round"/>
<path d="M6.03332 12.0261V11.2528C4.49999 10.3261 3.23999 8.51947 3.23999 6.59947C3.23999 3.29947 6.27332 0.712799 9.69999 1.45947C11.2067 1.7928 12.5267 2.7928 13.2133 4.1728C14.6067 6.9728 13.14 9.94613 10.9867 11.2461V12.0195C10.9867 12.2128 11.06 12.6595 10.3467 12.6595H6.67332C5.93999 12.6661 6.03332 12.3795 6.03332 12.0261Z" stroke="#0E0E1B" stroke-width="1.5" stroke-linecap="round" stroke-linejoin="round"/>
<path d="M6.16669 14.6668C7.69335 14.2335 9.30669 14.2335 10.8334 14.6668" stroke="#0E0E1B" stroke-width="1.5" stroke-linecap="round" stroke-linejoin="round"/>
</svg>
