<svg width="17" height="16" viewBox="0 0 17 16" fill="none" xmlns="http://www.w3.org/2000/svg">
<path d="M9.17331 1.94688L13.1066 3.69354C14.24 4.19354 14.24 5.02021 13.1066 5.52021L9.17331 7.26688C8.72664 7.46688 7.99331 7.46688 7.54664 7.26688L3.61331 5.52021C2.47997 5.02021 2.47997 4.19354 3.61331 3.69354L7.54664 1.94688C7.99331 1.74687 8.72664 1.74687 9.17331 1.94688Z" stroke="#0E0E1B" stroke-width="1.5" stroke-linecap="round" stroke-linejoin="round"/>
<path d="M2.5 7.33398C2.5 7.89398 2.92 8.54065 3.43333 8.76732L7.96 10.7807C8.30667 10.934 8.7 10.934 9.04 10.7807L13.5667 8.76732C14.08 8.54065 14.5 7.89398 14.5 7.33398" stroke="#0E0E1B" stroke-width="1.5" stroke-linecap="round" stroke-linejoin="round"/>
<path d="M2.5 10.666C2.5 11.286 2.86667 11.846 3.43333 12.0993L7.96 14.1127C8.30667 14.266 8.7 14.266 9.04 14.1127L13.5667 12.0993C14.1333 11.846 14.5 11.286 14.5 10.666" stroke="#0E0E1B" stroke-width="1.5" stroke-linecap="round" stroke-linejoin="round"/>
</svg>
