<svg width="17" height="16" viewBox="0 0 17 16" fill="none" xmlns="http://www.w3.org/2000/svg">
<path d="M15.1467 8.00018C15.1467 9.96018 14.2934 11.7335 12.9334 12.9402C11.7601 14.0068 10.2067 14.6468 8.50006 14.6468C4.83339 14.6468 1.85339 11.6668 1.85339 8.00018C1.85339 4.33352 4.83339 1.35352 8.50006 1.35352C10.2067 1.35352 11.7601 1.99352 12.9334 3.06018C14.2934 4.26685 15.1467 6.04018 15.1467 8.00018Z" stroke="#0E0E1B" stroke-width="1.5" stroke-linecap="round" stroke-linejoin="round"/>
<path d="M8.47998 10.9262C8.46665 12.0262 7.64664 12.2928 6.87998 11.9862C5.29998 11.3528 4.18665 9.80617 4.18665 7.99951C4.18665 6.19284 5.29998 4.64618 6.87998 4.00618C7.64664 3.69951 8.46665 3.97284 8.47998 5.06617V10.9262Z" stroke="#0E0E1B" stroke-width="1.5" stroke-linecap="round" stroke-linejoin="round"/>
</svg>
