<svg width="24" height="24" viewBox="0 0 24 24" fill="none" xmlns="http://www.w3.org/2000/svg">
<path fill-rule="evenodd" clip-rule="evenodd" d="M8 3C6.89543 3 6 3.89543 6 5H18C18 3.89543 17.1046 3 16 3H8ZM7 9H17C18.1046 9 19 9.89543 19 11V13.5194L16.7494 11.7189C16.019 11.1346 14.981 11.1346 14.2506 11.7189L10.4658 14.7467L8.23197 13.1511C7.47102 12.6076 6.43502 12.6639 5.73747 13.2867L5 13.9451V11C5 9.89543 5.89543 9 7 9ZM5 16.6263V17C5 18.1046 5.89543 19 7 19H17C18.1046 19 19 18.1046 19 17V16.0806L15.5 13.2806L11.7152 16.3085C11.0165 16.8674 10.0315 16.8943 9.30337 16.3742L7.0695 14.7786L5 16.6263ZM3 11C3 8.79086 4.79086 7 7 7H17C19.2091 7 21 8.79086 21 11V17C21 19.2091 19.2091 21 17 21H7C4.79086 21 3 19.2091 3 17V11Z" fill="#0E0E1B"/>
</svg>
