<svg width="24" height="25" viewBox="0 0 24 25" fill="none" xmlns="http://www.w3.org/2000/svg">
<path fill-rule="evenodd" clip-rule="evenodd" d="M8 3.16016C6.89543 3.16016 6 4.05559 6 5.16016H18C18 4.05559 17.1046 3.16016 16 3.16016H8ZM7 9.16016H17C18.1046 9.16016 19 10.0556 19 11.1602V13.6795L16.7494 11.8791C16.019 11.2947 14.981 11.2947 14.2506 11.8791L10.4658 14.9069L8.23197 13.3112C7.47102 12.7677 6.43502 12.824 5.73747 13.4468L5 14.1053V11.1602C5 10.0556 5.89543 9.16016 7 9.16016ZM5 16.7865V17.1602C5 18.2647 5.89543 19.1602 7 19.1602H17C18.1046 19.1602 19 18.2647 19 17.1602V16.2408L15.5 13.4408L11.7152 16.4686C11.0165 17.0276 10.0315 17.0544 9.30337 16.5343L7.0695 14.9387L5 16.7865ZM3 11.1602C3 8.95102 4.79086 7.16016 7 7.16016H17C19.2091 7.16016 21 8.95102 21 11.1602V17.1602C21 19.3693 19.2091 21.1602 17 21.1602H7C4.79086 21.1602 3 19.3693 3 17.1602V11.1602Z" fill="white"/>
</svg>
