<svg width="22" height="21" viewBox="0 0 22 21" fill="none" xmlns="http://www.w3.org/2000/svg">
<path d="M8.56542 9.3177C8.4797 9.30913 8.37684 9.30913 8.28256 9.3177C6.24256 9.24913 4.62256 7.5777 4.62256 5.52056C4.62256 3.42056 6.3197 1.71484 8.42827 1.71484C10.5283 1.71484 12.234 3.42056 12.234 5.52056C12.2254 7.5777 10.6054 9.24913 8.56542 9.3177Z" stroke="#292D32" stroke-width="1.5" stroke-linecap="round" stroke-linejoin="round"/>
<path d="M14.7804 3.42773C16.4432 3.42773 17.7804 4.77345 17.7804 6.42773C17.7804 8.04773 16.4947 9.36773 14.8918 9.42773C14.8232 9.41916 14.7461 9.41916 14.6689 9.42773" stroke="#292D32" stroke-width="1.5" stroke-linecap="round" stroke-linejoin="round"/>
<path d="M4.27984 12.4792C2.20555 13.8677 2.20555 16.1306 4.27984 17.5106C6.63698 19.0877 10.5027 19.0877 12.8598 17.5106C14.9341 16.122 14.9341 13.8592 12.8598 12.4792C10.5113 10.9106 6.64555 10.9106 4.27984 12.4792Z" stroke="#292D32" stroke-width="1.5" stroke-linecap="round" stroke-linejoin="round"/>
<path d="M16.4343 17.1429C17.0515 17.0143 17.6343 16.7657 18.1143 16.3971C19.4515 15.3943 19.4515 13.74 18.1143 12.7371C17.6429 12.3771 17.0686 12.1371 16.46 12" stroke="#292D32" stroke-width="1.5" stroke-linecap="round" stroke-linejoin="round"/>
</svg>
