<svg width="20" height="20" viewBox="0 0 20 20" fill="none" xmlns="http://www.w3.org/2000/svg">
<path d="M10 7.5C8.61929 7.5 7.5 8.61929 7.5 10C7.5 11.3807 8.61929 12.5 10 12.5C11.3807 12.5 12.5 11.3807 12.5 10C12.5 8.61929 11.3807 7.5 10 7.5Z" stroke="white" stroke-width="1.5" stroke-miterlimit="10" stroke-linecap="round" stroke-linejoin="round"/>
<path d="M18.3333 9.26615V10.7328C18.3333 11.5995 17.6249 12.3161 16.7499 12.3161C15.2416 12.3161 14.6249 13.3828 15.3833 14.6911C15.8166 15.4411 15.5583 16.4161 14.7999 16.8495L13.3583 17.6745C12.6999 18.0661 11.8499 17.8328 11.4583 17.1745L11.3666 17.0161C10.6166 15.7078 9.38325 15.7078 8.62492 17.0161L8.53325 17.1745C8.14158 17.8328 7.29158 18.0661 6.63325 17.6745L5.19158 16.8495C4.43325 16.4161 4.17492 15.4411 4.60825 14.6911C5.36659 13.3828 4.74992 12.3161 3.24158 12.3161C2.37492 12.3161 1.65825 11.6078 1.65825 10.7328V9.26615C1.65825 8.39948 2.36658 7.68282 3.24158 7.68282C4.74992 7.68282 5.36659 6.61615 4.60825 5.30782C4.17492 4.54948 4.43325 3.58282 5.19158 3.14948L6.63325 2.32448C7.29158 1.93282 8.14158 2.16615 8.53325 2.82448L8.62492 2.98282C9.37492 4.29115 10.6083 4.29115 11.3666 2.98282L11.4583 2.82448C11.8499 2.16615 12.6999 1.93282 13.3583 2.32448L14.7999 3.14948C15.5583 3.58282 15.8166 4.55782 15.3833 5.30782C14.6249 6.61615 15.2416 7.68282 16.7499 7.68282C17.6249 7.68282 18.3333 8.39948 18.3333 9.26615Z" stroke="white" stroke-width="1.5" stroke-miterlimit="10" stroke-linecap="round" stroke-linejoin="round"/>
</svg>
