<svg width="16" height="17" viewBox="0 0 16 17" fill="none" xmlns="http://www.w3.org/2000/svg">
<path d="M4.9974 3.49438H10.9974C11.4107 3.49438 11.7774 3.50772 12.1041 3.55438C13.8574 3.74772 14.3307 4.57438 14.3307 6.82772V9.49438C14.3307 11.7477 13.8574 12.5744 12.1041 12.7677C11.7774 12.8144 11.4107 12.8277 10.9974 12.8277H4.9974C4.58406 12.8277 4.2174 12.8144 3.89073 12.7677C2.1374 12.5744 1.66406 11.7477 1.66406 9.49438V6.82772C1.66406 4.57438 2.1374 3.74772 3.89073 3.55438C4.2174 3.50772 4.58406 3.49438 4.9974 3.49438Z" stroke="#292D32" stroke-width="1.5" stroke-linecap="round" stroke-linejoin="round"/>
<path d="M3 1.49438H13" stroke="#292D32" stroke-width="1.5" stroke-linecap="round" stroke-linejoin="round"/>
<path d="M3.33594 14.8279H13.3359" stroke="#292D32" stroke-width="1.5" stroke-linecap="round" stroke-linejoin="round"/>
</svg>
