<svg width="17" height="16" viewBox="0 0 17 16" fill="none" xmlns="http://www.w3.org/2000/svg">
<path d="M3.83337 10.9993V4.99935C3.83337 4.58602 3.84671 4.21935 3.89337 3.89268C4.08671 2.13935 4.91337 1.66602 7.16671 1.66602H9.83337C12.0867 1.66602 12.9134 2.13935 13.1067 3.89268C13.1534 4.21935 13.1667 4.58602 13.1667 4.99935V10.9993C13.1667 11.4127 13.1534 11.7793 13.1067 12.106C12.9134 13.8593 12.0867 14.3327 9.83337 14.3327H7.16671C4.91337 14.3327 4.08671 13.8593 3.89337 12.106C3.84671 11.7793 3.83337 11.4127 3.83337 10.9993Z" stroke="#0E0E1B" stroke-width="1.5" stroke-linecap="round" stroke-linejoin="round"/>
<path d="M1.83337 13V3" stroke="#0E0E1B" stroke-width="1.5" stroke-linecap="round" stroke-linejoin="round"/>
<path d="M15.1666 12.666V2.66602" stroke="#0E0E1B" stroke-width="1.5" stroke-linecap="round" stroke-linejoin="round"/>
</svg>
