<svg width="17" height="16" viewBox="0 0 17 16" fill="none" xmlns="http://www.w3.org/2000/svg">
<g clip-path="url(#clip0_5015_71425)">
<path d="M5.83337 10.6673H4.12004C2.59337 10.6673 1.83337 9.90732 1.83337 8.38065V3.62065C1.83337 2.09398 2.59337 1.33398 4.12004 1.33398H7.16671C8.69337 1.33398 9.45337 2.09398 9.45337 3.62065" stroke="#0E0E1B" stroke-width="1.5" stroke-linecap="round" stroke-linejoin="round"/>
<path d="M12.88 14.6673H9.8333C8.30663 14.6673 7.54663 13.9073 7.54663 12.3807V7.62065C7.54663 6.09398 8.30663 5.33398 9.8333 5.33398H12.88C14.4066 5.33398 15.1666 6.09398 15.1666 7.62065V12.3807C15.1666 13.9073 14.4066 14.6673 12.88 14.6673Z" stroke="#0E0E1B" stroke-width="1.5" stroke-linecap="round" stroke-linejoin="round"/>
<path d="M10.4133 10H12.5867" stroke="#292D32" stroke-width="1.5" stroke-linecap="round" stroke-linejoin="round"/>
<path d="M11.5 11.0874V8.91406" stroke="#292D32" stroke-width="1.5" stroke-linecap="round" stroke-linejoin="round"/>
</g>
<defs>
<clipPath id="clip0_5015_71425">
<rect width="16" height="16" fill="white" transform="translate(0.5)"/>
</clipPath>
</defs>
</svg>
