<svg width="17" height="16" viewBox="0 0 17 16" fill="none" xmlns="http://www.w3.org/2000/svg">
<mask id="path-1-inside-1_5015_71490" fill="white">
<path d="M14.6539 3.33333H2.34619C2.06585 3.33333 1.83337 3.03111 1.83337 2.66667C1.83337 2.30222 2.06585 2 2.34619 2H14.6539C14.9342 2 15.1667 2.30222 15.1667 2.66667C15.1667 3.03111 14.9342 3.33333 14.6539 3.33333Z"/>
</mask>
<path d="M14.6539 3.33333H2.34619C2.06585 3.33333 1.83337 3.03111 1.83337 2.66667C1.83337 2.30222 2.06585 2 2.34619 2H14.6539C14.9342 2 15.1667 2.30222 15.1667 2.66667C15.1667 3.03111 14.9342 3.33333 14.6539 3.33333Z" fill="#292D32"/>
<path d="M14.6539 1.33333H2.34619V5.33333H14.6539V1.33333ZM2.34619 1.33333C2.96736 1.33333 3.37919 1.66932 3.5699 1.91725C3.76275 2.16794 3.83337 2.43664 3.83337 2.66667H-0.166626C-0.166626 3.26114 0.0202391 3.86317 0.399408 4.35609C0.776443 4.84623 1.44468 5.33333 2.34619 5.33333V1.33333ZM3.83337 2.66667C3.83337 2.89669 3.76275 3.16539 3.5699 3.41609C3.37919 3.66401 2.96736 4 2.34619 4V0C1.44468 0 0.776443 0.4871 0.399408 0.977245C0.0202391 1.47016 -0.166626 2.0722 -0.166626 2.66667H3.83337ZM2.34619 4H14.6539V0H2.34619V4ZM14.6539 4C14.0327 4 13.6209 3.66401 13.4302 3.41609C13.2373 3.16539 13.1667 2.89669 13.1667 2.66667H17.1667C17.1667 2.0722 16.9798 1.47016 16.6007 0.977245C16.2236 0.4871 15.5554 0 14.6539 0V4ZM13.1667 2.66667C13.1667 2.43664 13.2373 2.16794 13.4302 1.91725C13.6209 1.66932 14.0327 1.33333 14.6539 1.33333V5.33333C15.5554 5.33333 16.2236 4.84623 16.6007 4.35609C16.9798 3.86317 17.1667 3.26114 17.1667 2.66667H13.1667Z" fill="#0E0E1B" mask="url(#path-1-inside-1_5015_71490)"/>
<mask id="path-3-inside-2_5015_71490" fill="white">
<path d="M8.66534 7.33333H2.33474C2.06066 7.33333 1.83337 7.03111 1.83337 6.66667C1.83337 6.30222 2.06066 6 2.33474 6H8.66534C8.93942 6 9.16671 6.30222 9.16671 6.66667C9.16671 7.03111 8.94611 7.33333 8.66534 7.33333Z"/>
</mask>
<path d="M8.66534 7.33333H2.33474C2.06066 7.33333 1.83337 7.03111 1.83337 6.66667C1.83337 6.30222 2.06066 6 2.33474 6H8.66534C8.93942 6 9.16671 6.30222 9.16671 6.66667C9.16671 7.03111 8.94611 7.33333 8.66534 7.33333Z" fill="#292D32"/>
<path d="M8.66534 5.33333H2.33474V9.33333H8.66534V5.33333ZM2.33474 5.33333C2.97839 5.33333 3.39484 5.68876 3.5797 5.93457C3.76802 6.18497 3.83337 6.44753 3.83337 6.66667H-0.166626C-0.166626 7.25025 0.0123758 7.84614 0.382852 8.33876C0.749874 8.82679 1.41701 9.33333 2.33474 9.33333V5.33333ZM3.83337 6.66667C3.83337 6.8858 3.76802 7.14836 3.5797 7.39876C3.39484 7.64457 2.97839 8 2.33474 8V4C1.41701 4 0.749874 4.50654 0.382852 4.99457C0.0123758 5.48719 -0.166626 6.08309 -0.166626 6.66667H3.83337ZM2.33474 8H8.66534V4H2.33474V8ZM8.66534 8C8.02169 8 7.60524 7.64457 7.42038 7.39876C7.23207 7.14836 7.16671 6.8858 7.16671 6.66667H11.1667C11.1667 6.08309 10.9877 5.48719 10.6172 4.99457C10.2502 4.50654 9.58307 4 8.66534 4V8ZM7.16671 6.66667C7.16671 6.46148 7.22587 6.19894 7.41759 5.94165C7.61217 5.68051 8.0336 5.33333 8.66534 5.33333V9.33333C9.57785 9.33333 10.25 8.83505 10.625 8.33168C10.9972 7.83217 11.1667 7.23629 11.1667 6.66667H7.16671Z" fill="#0E0E1B" mask="url(#path-3-inside-2_5015_71490)"/>
<mask id="path-5-inside-3_5015_71490" fill="white">
<path d="M14.6539 10.6673H2.34619C2.06585 10.6673 1.83337 10.3651 1.83337 10.0007C1.83337 9.63621 2.06585 9.33398 2.34619 9.33398H14.6539C14.9342 9.33398 15.1667 9.63621 15.1667 10.0007C15.1667 10.3651 14.9342 10.6673 14.6539 10.6673Z"/>
</mask>
<path d="M14.6539 10.6673H2.34619C2.06585 10.6673 1.83337 10.3651 1.83337 10.0007C1.83337 9.63621 2.06585 9.33398 2.34619 9.33398H14.6539C14.9342 9.33398 15.1667 9.63621 15.1667 10.0007C15.1667 10.3651 14.9342 10.6673 14.6539 10.6673Z" fill="#292D32"/>
<path d="M14.6539 8.66732H2.34619V12.6673H14.6539V8.66732ZM2.34619 8.66732C2.96736 8.66732 3.37919 9.00331 3.5699 9.25123C3.76275 9.50193 3.83337 9.77063 3.83337 10.0007H-0.166626C-0.166626 10.5951 0.0202389 11.1972 0.399408 11.6901C0.776443 12.1802 1.44468 12.6673 2.34619 12.6673V8.66732ZM3.83337 10.0007C3.83337 10.2307 3.76275 10.4994 3.5699 10.7501C3.37919 10.998 2.96736 11.334 2.34619 11.334V7.33398C1.44468 7.33398 0.776443 7.82108 0.399408 8.31123C0.0202389 8.80415 -0.166626 9.40618 -0.166626 10.0007H3.83337ZM2.34619 11.334H14.6539V7.33398H2.34619V11.334ZM14.6539 11.334C14.0327 11.334 13.6209 10.998 13.4302 10.7501C13.2373 10.4994 13.1667 10.2307 13.1667 10.0007H17.1667C17.1667 9.40618 16.9798 8.80415 16.6007 8.31123C16.2236 7.82108 15.5554 7.33398 14.6539 7.33398V11.334ZM13.1667 10.0007C13.1667 9.77063 13.2373 9.50193 13.4302 9.25123C13.6209 9.00331 14.0327 8.66732 14.6539 8.66732V12.6673C15.5554 12.6673 16.2236 12.1802 16.6007 11.6901C16.9798 11.1972 17.1667 10.5951 17.1667 10.0007H13.1667Z" fill="#0E0E1B" mask="url(#path-5-inside-3_5015_71490)"/>
<mask id="path-7-inside-4_5015_71490" fill="white">
<path d="M8.66534 13.9993H2.33474C2.06066 13.9993 1.83337 13.6971 1.83337 13.3327C1.83337 12.9682 2.06066 12.666 2.33474 12.666H8.66534C8.93942 12.666 9.16671 12.9682 9.16671 13.3327C9.16671 13.6971 8.94611 13.9993 8.66534 13.9993Z"/>
</mask>
<path d="M8.66534 13.9993H2.33474C2.06066 13.9993 1.83337 13.6971 1.83337 13.3327C1.83337 12.9682 2.06066 12.666 2.33474 12.666H8.66534C8.93942 12.666 9.16671 12.9682 9.16671 13.3327C9.16671 13.6971 8.94611 13.9993 8.66534 13.9993Z" fill="#292D32"/>
<path d="M8.66534 11.9993H2.33474V15.9993H8.66534V11.9993ZM2.33474 11.9993C2.97839 11.9993 3.39484 12.3548 3.5797 12.6006C3.76802 12.851 3.83337 13.1135 3.83337 13.3327H-0.166626C-0.166626 13.9163 0.012376 14.5122 0.382853 15.0048C0.749875 15.4928 1.41701 15.9993 2.33474 15.9993V11.9993ZM3.83337 13.3327C3.83337 13.5518 3.76802 13.8144 3.5797 14.0648C3.39484 14.3106 2.97839 14.666 2.33474 14.666V10.666C1.41701 10.666 0.749875 11.1726 0.382853 11.6606C0.012376 12.1532 -0.166626 12.7491 -0.166626 13.3327H3.83337ZM2.33474 14.666H8.66534V10.666H2.33474V14.666ZM8.66534 14.666C8.02169 14.666 7.60524 14.3106 7.42038 14.0648C7.23207 13.8144 7.16671 13.5518 7.16671 13.3327H11.1667C11.1667 12.7491 10.9877 12.1532 10.6172 11.6606C10.2502 11.1726 9.58307 10.666 8.66534 10.666V14.666ZM7.16671 13.3327C7.16671 13.1275 7.22587 12.865 7.41759 12.6077C7.61218 12.3465 8.0336 11.9993 8.66534 11.9993V15.9993C9.57785 15.9993 10.25 15.5011 10.625 14.9977C10.9972 14.4982 11.1667 13.9023 11.1667 13.3327H7.16671Z" fill="#0E0E1B" mask="url(#path-7-inside-4_5015_71490)"/>
</svg>
