<svg width="16" height="17" viewBox="0 0 16 17" fill="none" xmlns="http://www.w3.org/2000/svg">
<path d="M14 4.14779C11.78 3.92779 9.54667 3.81445 7.32 3.81445C6 3.81445 4.68 3.88112 3.36 4.01445L2 4.14779" stroke="#292D32" stroke-width="1.5" stroke-linecap="round" stroke-linejoin="round"/>
<path d="M5.66406 3.47438L5.81073 2.60105C5.9174 1.96772 5.9974 1.49438 7.12406 1.49438H8.87073C9.9974 1.49438 10.0841 1.99438 10.1841 2.60772L10.3307 3.47438" stroke="#292D32" stroke-width="1.5" stroke-linecap="round" stroke-linejoin="round"/>
<path d="M12.563 6.25439L12.1297 12.9677C12.0564 14.0144 11.9964 14.8277 10.1364 14.8277H5.85635C3.99635 14.8277 3.93635 14.0144 3.86302 12.9677L3.42969 6.25439" stroke="#292D32" stroke-width="1.5" stroke-linecap="round" stroke-linejoin="round"/>
<path d="M6.88281 11.1611H9.10281" stroke="#292D32" stroke-width="1.5" stroke-linecap="round" stroke-linejoin="round"/>
<path d="M6.33594 8.49438H9.66927" stroke="#292D32" stroke-width="1.5" stroke-linecap="round" stroke-linejoin="round"/>
</svg>
