<svg width="17" height="16" viewBox="0 0 17 16" fill="none" xmlns="http://www.w3.org/2000/svg">
<path d="M11.8334 14.666H5.16671C2.50004 14.666 1.83337 13.9993 1.83337 11.3327V9.99935C1.83337 7.33268 2.50004 6.66602 5.16671 6.66602H11.8334C14.5 6.66602 15.1667 7.33268 15.1667 9.99935V11.3327C15.1667 13.9993 14.5 14.666 11.8334 14.666Z" stroke="#0E0E1B" stroke-width="1.5" stroke-linecap="round" stroke-linejoin="round"/>
<path d="M4.5 6.66732V5.33398C4.5 3.12732 5.16667 1.33398 8.5 1.33398C11.5 1.33398 12.5 2.66732 12.5 4.66732" stroke="#0E0E1B" stroke-width="1.5" stroke-linecap="round" stroke-linejoin="round"/>
<path d="M8.50004 12.3333C9.42052 12.3333 10.1667 11.5871 10.1667 10.6667C10.1667 9.74619 9.42052 9 8.50004 9C7.57957 9 6.83337 9.74619 6.83337 10.6667C6.83337 11.5871 7.57957 12.3333 8.50004 12.3333Z" stroke="#0E0E1B" stroke-width="1.5" stroke-linecap="round" stroke-linejoin="round"/>
</svg>
